<svg version="1.1" xmlns="http://www.w3.org/2000/svg" xmlns:xlink="http://www.w3.org/1999/xlink" width="618.35" height="359"><style xmlns="http://www.w3.org/1999/xhtml">undefined
undefined
undefined
undefined
</style><defs><linearGradient id="tLbaHXtGIqIZ" x1="-712.54px" x2="-606.47px" y1="655.47px" y2="761.54px" gradientUnits="userSpaceOnUse"><stop offset="0" stop-color="#4d27a8"/><stop offset="1" stop-color="#a166ff"/></linearGradient><linearGradient id="slMWyqMPFVbL" x1="-1788.05px" x2="-1788.05px" y1="692.67px" y2="842.67px" gradientUnits="userSpaceOnUse"><stop offset="0" stop-color="#c8511b"/><stop offset="1" stop-color="#f90"/></linearGradient></defs><g transform="translate(0,0)"><path fill="none" stroke="none" stroke-dasharray="undefined" vector-effect="non-scaling-stroke"/><g><rect fill="#FFFFFF" stroke="none" x="0" y="0" width="618.35" height="359"/></g><g data-width="72" data-height="72" data-layerId="40FKXxnOoaFR" transform="translate(0,0) matrix(1,0,0,1,131,214)"><g><g transform="translate(0,0) scale(0.96,0.96)"><g><g><path fill="url(#tLbaHXtGIqIZ)" stroke="rgb(0,0,0)" stroke-dasharray="undefined" vector-effect="non-scaling-stroke" d="M 0 0 L 75 0 Q 75 0 75 0 L 75 75 Q 75 75 75 75 L 0 75 Q 0 75 0 75 L 0 0 Q 0 0 0 0 Z" stroke-opacity="0" stroke-miterlimit="10"/></g><g><g><path fill="#ffffff" stroke="rgb(0,0,0)" stroke-dasharray="undefined" vector-effect="non-scaling-stroke" d="M 62.5 32.51 L 62.5 34.51 L 53.68 34.51 C 50.75077 34.51486 47.82334 34.36465 44.91 34.06 L 44.91 34.06 C 26.17 32.06 12.51 23.88 12.51 13.77 C 12.50674 13.34863 12.53347 12.92757 12.59 12.51 L 14.59 12.51 C 14.52192 12.92652 14.48847 13.34796 14.49 13.77 C 14.49 24.11 32.08 32.52 53.71 32.52 Z" stroke-opacity="0" stroke-miterlimit="10"/></g><g><path fill="#ffffff" stroke="rgb(0,0,0)" stroke-dasharray="undefined" vector-effect="non-scaling-stroke" d="M 62.5 36.51 L 62.5 38.51 L 60.38 38.51 C 59.71496 37.77551 58.98167 37.10584 58.19 36.51 L 62.5 36.51 Z" stroke-opacity="0" stroke-miterlimit="10"/></g><g><path fill="#ffffff" stroke="rgb(0,0,0)" stroke-dasharray="undefined" vector-effect="non-scaling-stroke" d="M 40.25 36.19 C 39.93 36.41 39.65 36.63 39.35 36.87 C 38.90293 37.22291 38.47562 37.60015 38.07 38 C 37.75 38.32 37.44 38.66 37.15 39 C 24.49 40.13 15.63 42.93 12.5 47 L 12.5 44.1 C 16.87 40.39 24.95 38.47 32.88 37.49 C 24.95 36.49 16.88 34.57 12.5 30.86 L 12.5 28 C 15.88 32.35 25.94 35.27 40.25 36.19 Z" stroke-opacity="0" stroke-miterlimit="10"/></g><g><path fill="#ffffff" stroke="rgb(0,0,0)" stroke-dasharray="undefined" vector-effect="non-scaling-stroke" d="M 62.5 36.52 L 62.5 38.52 L 60.38 38.52 C 59.71496 37.78551 58.98167 37.11584 58.19 36.52 Z" stroke-opacity="0" stroke-miterlimit="10"/></g><g><path fill="#ffffff" stroke="rgb(0,0,0)" stroke-dasharray="undefined" vector-effect="non-scaling-stroke" d="M 62.5 28.51 L 62.5 30.51 L 58.36 30.51 C 38.36 30.51 23.77 23.72 23.77 14.37 C 23.77 14.37 23.77 13.22 23.77 12.54 L 25.77 12.54 C 25.77 13.02 25.77 14.01 25.77 14.37 C 25.77 22.37 39.77 28.56 58.36 28.56 Z" stroke-opacity="0" stroke-miterlimit="10"/></g><g><path fill="#ffffff" stroke="rgb(0,0,0)" stroke-dasharray="undefined" vector-effect="non-scaling-stroke" d="M 34.81 42.77 C 34.47658 43.50835 34.20888 44.27465 34.01 45.06 C 22.33 48.31 14.46 54.36 14.46 61.27 C 14.45975 61.68165 14.48983 62.09277 14.55 62.5 L 12.55 62.5 C 12.49318 62.09252 12.46644 61.68141 12.47 61.27 C 12.5 53.09 21.46 46.15 34.81 42.77 Z" stroke-opacity="0" stroke-miterlimit="10"/></g><g><path fill="#ffffff" stroke="rgb(0,0,0)" stroke-dasharray="undefined" vector-effect="non-scaling-stroke" d="M 25.77 60.57 C 25.77 60.96 25.77 62.09 25.77 62.5 L 23.77 62.5 C 23.77 61.84 23.77 60.59 23.77 60.57 C 23.77 55.93 27.39 51.92 33.5 49.07 C 33.50241 49.77959 33.55588 50.48809 33.66 51.19 C 28.7 53.64 25.77 56.9 25.77 60.57 Z" stroke-opacity="0" stroke-miterlimit="10"/></g><g><path fill="#ffffff" stroke="rgb(0,0,0)" stroke-dasharray="undefined" vector-effect="non-scaling-stroke" d="M 49 35.5 C 38.6077 35.5 32.1125 46.75 37.30866 55.75 C 42.50481 64.75 55.49519 64.75 60.69134 55.75 C 61.87622 53.69774 62.5 51.36974 62.5 49 C 62.48899 41.54872 56.45128 35.51101 49 35.5 Z M 60 52.5 C 59.66397 53.5702 59.16476 54.58211 58.52 55.5 L 53.52 55.5 L 53.52 57.5 L 56.76 57.5 C 52.37604 61.50217 45.66396 61.50217 41.28 57.5 L 42.5 57.5 L 42.5 55.5 L 39.5 55.5 C 38.85524 54.58211 38.35603 53.5702 38.02 52.5 L 42.5 52.5 L 42.5 50.5 L 37.6 50.5 C 37.46667 49.50444 37.46667 48.49556 37.6 47.5 L 43.5 47.5 L 43.5 45.5 L 38.05 45.5 C 38.38603 44.4298 38.88524 43.41789 39.53 42.5 L 50.53 42.5 L 50.53 40.5 L 41.26 40.5 C 45.64396 36.49783 52.35604 36.49783 56.74 40.5 L 53.5 40.5 C 52.94772 40.5 52.5 40.94772 52.5 41.5 L 52.5 46.5 C 52.5 47.05228 52.94772 47.5 53.5 47.5 L 58.5 47.5 C 59.05228 47.5 59.5 47.05228 59.5 46.5 L 59.5 44.32 C 60.16013 45.79186 60.50094 47.38688 60.5 49 C 60.50221 49.50174 60.46879 50.003 60.4 50.5 L 53.5 50.5 L 53.5 52.5 Z M 57.55 42.5 L 57.55 45.5 L 54.55 45.5 L 54.55 42.5 Z" stroke-opacity="0" stroke-miterlimit="10"/></g><g><path fill="#ffffff" stroke="rgb(0,0,0)" stroke-dasharray="undefined" vector-effect="non-scaling-stroke" d="M 45.5 45.5 L 50.5 45.5 Q 50.5 45.5 50.5 45.5 L 50.5 47.5 Q 50.5 47.5 50.5 47.5 L 45.5 47.5 Q 45.5 47.5 45.5 47.5 L 45.5 45.5 Q 45.5 45.5 45.5 45.5 Z" stroke-opacity="0" stroke-miterlimit="10"/></g><g><path fill="#ffffff" stroke="rgb(0,0,0)" stroke-dasharray="undefined" vector-effect="non-scaling-stroke" d="M 50.5 57.5 L 45.5 57.5 C 44.94772 57.5 44.5 57.05228 44.5 56.5 L 44.5 51.5 C 44.5 50.94772 44.94772 50.5 45.5 50.5 L 50.5 50.5 C 51.05228 50.5 51.5 50.94772 51.5 51.5 L 51.5 56.5 C 51.5 57.05228 51.05228 57.5 50.5 57.5 Z M 46.5 55.5 L 49.5 55.5 L 49.5 52.5 L 46.5 52.5 Z" stroke-opacity="0" stroke-miterlimit="10"/></g></g></g></g></g></g><g transform="matrix(1,0,0,1,141,288)"><g><g><rect fill="rgb(0,0,0)" stroke="none" x="0" y="0" width="50" height="17" fill-opacity="0"/></g></g><g><g><rect fill="rgb(0,0,0)" stroke="none" x="0" y="0" width="50" height="17" fill-opacity="0"/></g></g><g><g><rect fill="rgb(0,0,0)" stroke="none" x="2.5" y="2.25" width="45" height="14" fill-opacity="0"/></g></g><g><g><rect fill="rgb(0,0,0)" stroke="none" x="2.5" y="2.25" width="45" height="14" fill-opacity="0"/></g></g><g><g><rect fill="rgb(0,0,0)" stroke="none" x="2.5" y="0.25" width="45" height="16" fill-opacity="0"/></g><text fill="rgb(28, 69, 135)" stroke="none" font-family="&quot;Arial&quot;" font-size="14px" font-style="normal" font-weight="normal" text-decoration="" line-height="16.5px" x="2.5" y="13.25" data-layerId="40FKXxnOoaFR">Kinesis</text></g><g><g/></g></g><g data-width="72" data-height="72" data-layerId="40FKXxnOoaFR" transform="translate(0,0) matrix(1,0,0,1,324,214)"><g><g transform="translate(0,0) scale(0.96,0.96)"><g><g><path fill="url(#slMWyqMPFVbL)" stroke="rgb(0,0,0)" data-layerId="40FKXxnOoaFR" stroke-dasharray="undefined" vector-effect="non-scaling-stroke" d="M 0 0 L 75 0 Q 75 0 75 0 L 75 75 Q 75 75 75 75 L 0 75 Q 0 75 0 75 L 0 0 Q 0 0 0 0 Z" stroke-opacity="0" stroke-miterlimit="10"/></g><g><g><path fill="#ffffff" stroke="rgb(0,0,0)" data-layerId="40FKXxnOoaFR" stroke-dasharray="undefined" vector-effect="non-scaling-stroke" d="M 60.5 62.5 L 48.18 62.5 C 47.79534 62.49891 47.4454 62.27728 47.28 61.93 L 29.86 25.5 L 22.49 25.5 C 21.93772 25.5 21.49 25.05228 21.49 24.5 L 21.49 13.5 C 21.49 12.94772 21.93772 12.5 22.49 12.5 L 37.89 12.5 C 38.27466 12.50109 38.6246 12.72272 38.79 13.07 L 56.13 49.5 L 60.5 49.5 C 61.05228 49.5 61.5 49.94772 61.5 50.5 L 61.5 61.5 C 61.5 62.05228 61.05228 62.5 60.5 62.5 Z M 48.81 60.5 L 59.5 60.5 L 59.5 51.5 L 55.5 51.5 C 55.11534 51.49891 54.7654 51.27728 54.6 50.93 L 37.26 14.5 L 23.5 14.5 L 23.5 23.5 L 30.5 23.5 C 30.88466 23.50109 31.2346 23.72272 31.4 24.07 Z" stroke-opacity="0" stroke-miterlimit="10"/></g><g><path fill="#ffffff" stroke="rgb(0,0,0)" data-layerId="40FKXxnOoaFR" stroke-dasharray="undefined" vector-effect="non-scaling-stroke" d="M 27.48 62.5 L 14.48 62.5 C 14.1345 62.50069 13.81312 62.32299 13.63 62.03 C 13.43564 61.72961 13.41658 61.34828 13.58 61.03 L 27.18 32.62 C 27.3454 32.27272 27.69534 32.05109 28.08 32.05 L 28.08 32.05 C 28.4624 32.04923 28.81175 32.26661 28.98 32.61 L 35.49 46 C 35.62276 46.27481 35.62276 46.59519 35.49 46.87 L 28.39 61.87 C 28.24113 62.24402 27.88249 62.49231 27.48 62.5 Z M 16.08 60.5 L 26.85 60.5 L 33.48 46.5 L 28.09 35.35 Z" stroke-opacity="0" stroke-miterlimit="10"/></g></g></g></g></g></g><g transform="matrix(1,0,0,1,296,288)"><g><g><rect fill="rgb(0,0,0)" stroke="none" x="0" y="0" width="125" height="51" fill-opacity="0"/></g></g><g><g><rect fill="rgb(0,0,0)" stroke="none" x="0" y="0" width="125" height="17" fill-opacity="0"/></g></g><g><g><rect fill="rgb(0,0,0)" stroke="none" x="7.4499969482421875" y="-0.5" width="110" height="18" fill-opacity="0"/></g></g><g><g><rect fill="rgb(0,0,0)" stroke="none" x="7.4499969482421875" y="-0.5" width="110" height="18" fill-opacity="0"/></g><text fill="rgb(56, 118, 29)" stroke="none" font-family="&quot;Raleway&quot;" font-size="14px" font-style="normal" font-weight="normal" text-decoration="" line-height="17px" x="7.4499969482421875" y="13.5" data-layerId="40FKXxnOoaFR">Lambda</text><text fill="rgb(56, 118, 29)" stroke="none" font-family="&quot;Raleway&quot;" font-size="14px" font-style="normal" font-weight="normal" text-decoration="" line-height="17px" x="64.78334045410156" y="13.5" data-layerId="40FKXxnOoaFR">function</text></g><g><g><rect fill="rgb(0,0,0)" stroke="none" x="0" y="17" width="125" height="17" fill-opacity="0"/></g></g><g><g><rect fill="rgb(0,0,0)" stroke="none" x="33.399993896484375" y="16.5" width="58" height="18" fill-opacity="0"/></g></g><g><g><rect fill="rgb(0,0,0)" stroke="none" x="33.399993896484375" y="16.5" width="58" height="18" fill-opacity="0"/></g><text fill="rgb(56, 118, 29)" stroke="none" font-family="&quot;Raleway&quot;" font-size="14px" font-style="normal" font-weight="normal" text-decoration="" line-height="17px" x="33.399993896484375" y="30.5" data-layerId="40FKXxnOoaFR">to</text><text fill="rgb(56, 118, 29)" stroke="none" font-family="&quot;Raleway&quot;" font-size="14px" font-style="normal" font-weight="normal" text-decoration="" line-height="17px" x="49.81666564941406" y="30.5" data-layerId="40FKXxnOoaFR">invoke</text></g><g><g><rect fill="rgb(0,0,0)" stroke="none" x="0" y="34" width="125" height="17" fill-opacity="0"/></g></g><g><g><rect fill="rgb(0,0,0)" stroke="none" x="13.866668701171875" y="33.5" width="98" height="18" fill-opacity="0"/></g></g><g><g><rect fill="rgb(0,0,0)" stroke="none" x="13.866668701171875" y="33.5" width="98" height="18" fill-opacity="0"/></g><text fill="rgb(56, 118, 29)" stroke="none" font-family="&quot;Raleway&quot;" font-size="14px" font-style="normal" font-weight="normal" text-decoration="" line-height="17px" x="13.866668701171875" y="47.5" data-layerId="40FKXxnOoaFR">other</text><text fill="rgb(56, 118, 29)" stroke="none" font-family="&quot;Raleway&quot;" font-size="14px" font-style="normal" font-weight="normal" text-decoration="" line-height="17px" x="51.55000305175781" y="47.5" data-layerId="40FKXxnOoaFR">functions</text></g><g><g/></g></g><g data-width="72" data-height="72" data-layerId="40FKXxnOoaFR" transform="translate(0,0) matrix(1,0,0,1,506,226)"><g><g transform="translate(0,0) scale(1.44,1.44)"><g><g><path fill="#d86613" stroke="rgb(0,0,0)" data-layerId="40FKXxnOoaFR" stroke-dasharray="undefined" vector-effect="non-scaling-stroke" d="M 39.06 39.12 L 31.47 39.12 C 31.08173 39.12278 30.72695 38.90055 30.56 38.55 L 19.92 15.69 L 15.62 15.69 C 15.06772 15.69 14.62 15.24228 14.62 14.69 L 14.62 8.12 C 14.62 7.567715 15.06772 7.12 15.62 7.12 L 25.11 7.12 C 25.49332 7.126746 25.83904 7.352047 26 7.7 L 36.62 30.56 L 39.06 30.56 C 39.61228 30.56 40.06 31.00772 40.06 31.56 L 40.06 38.12 C 40.06 38.67228 39.61228 39.12 39.06 39.12 Z M 32.06 37.12 L 38.06 37.12 L 38.06 32.56 L 36 32.56 C 35.60943 32.56097 35.25404 32.33445 35.09 31.98 L 24.48 9.12 L 16.63 9.12 L 16.63 13.69 L 20.56 13.69 C 20.95057 13.68903 21.30596 13.91555 21.47 14.27 Z" stroke-opacity="0" stroke-miterlimit="10"/></g><g><path fill="#d86613" stroke="rgb(0,0,0)" data-layerId="40FKXxnOoaFR" stroke-dasharray="undefined" vector-effect="non-scaling-stroke" d="M 18.43 39.12 L 10.31 39.12 C 9.576195 39.11793 9.09446 38.3525 9.41 37.69 L 17.9 19.91 C 18.0654 19.56272 18.41534 19.34109 18.8 19.34 L 18.8 19.34 C 19.1824 19.33923 19.53175 19.55661 19.7 19.9 L 23.77 28.3 C 23.89956 28.57203 23.89956 28.88797 23.77 29.16 L 19.33 38.55 C 19.1646 38.89728 18.81466 39.11891 18.43 39.12 Z M 11.9 37.12 L 17.79 37.12 L 21.79 28.74 L 18.79 22.65 Z" stroke-opacity="0" stroke-miterlimit="10"/></g><g><path fill="#d86613" stroke="rgb(0,0,0)" data-layerId="40FKXxnOoaFR" stroke-dasharray="undefined" vector-effect="non-scaling-stroke" d="M 25 48.5 C 6.909692 48.5 -4.396751 28.91667 4.648403 13.25 C 13.69356 -2.416667 36.30644 -2.416667 45.3516 13.25 C 47.41415 16.82245 48.5 20.87489 48.5 25 C 48.48897 37.98193 37.98193 48.5 25 48.5 Z M 25 3.5 C 8.449292 3.5 -1.8949 21.41667 6.380454 35.75 C 14.65581 50.08333 35.34419 50.08333 43.61955 35.75 C 45.50657 32.48159 46.5 28.77404 46.5 25 C 46.48346 13.12103 36.87898 3.5 25 3.5 Z" stroke-opacity="0" stroke-miterlimit="10"/></g></g></g></g></g><g transform="matrix(1,0,0,1,484,300)"><g><g><rect fill="rgb(0,0,0)" stroke="none" x="0" y="0" width="115" height="16" fill-opacity="0"/></g></g><g><g><rect fill="rgb(0,0,0)" stroke="none" x="0" y="0" width="115" height="16" fill-opacity="0"/></g></g><g><g><rect fill="rgb(0,0,0)" stroke="none" x="2.5" y="-0.5" width="110" height="17" fill-opacity="0"/></g></g><g><g><rect fill="rgb(0,0,0)" stroke="none" x="2.5" y="-0.5" width="110" height="17" fill-opacity="0"/></g><text fill="rgb(61, 133, 198)" stroke="none" font-family="&quot;Droid Serif&quot;" font-size="13px" font-style="normal" font-weight="normal" text-decoration="" line-height="16px" x="2.5" y="12.5" data-layerId="40FKXxnOoaFR">Lambda</text><text fill="rgb(61, 133, 198)" stroke="none" font-family="&quot;Droid Serif&quot;" font-size="13px" font-style="normal" font-weight="normal" text-decoration="" line-height="16px" x="56.866668701171875" y="12.5" data-layerId="40FKXxnOoaFR">Function</text></g><g><g/></g></g><g data-layerId="40FKXxnOoaFR" transform="matrix(1,0,0,1,380,234)"><g transform="translate(0,0)"><path fill="none" stroke="none" stroke-dasharray="undefined" vector-effect="non-scaling-stroke"/><g transform="translate(-539,-79) translate(159,-155) matrix(1,0,0,1,0,0)"><g><g><path fill="none" stroke="#b7b7b7" stroke-dasharray="undefined" vector-effect="non-scaling-stroke" d="M 506 262 L 461 262 Q 451 262 451 256 L 451 256 Q 451 250 441 250 L 396 250" stroke-miterlimit="10" stroke-width="4"/></g></g></g></g></g><g data-layerId="40FKXxnOoaFR" transform="matrix(1,0,0,1,187,234)"><g transform="translate(0,0)"><path fill="none" stroke="none" stroke-dasharray="undefined" vector-effect="non-scaling-stroke"/><g transform="translate(-263,-251) translate(76,17) matrix(1,0,0,1,0,0)"><g><g><path fill="none" stroke="#b7b7b7" stroke-dasharray="undefined" vector-effect="non-scaling-stroke" d="M 324 250 L 293.6666666666667 250 Q 283.6666666666667 250 273.6666666666667 250 L 253.33333333333334 250 Q 243.33333333333334 250 233.33333333333334 250 L 203 250" stroke-miterlimit="10" stroke-width="4"/></g></g></g></g></g><g transform="matrix(1,0,0,1,217,242)"><g><path fill="none" stroke="none" data-layerId="40FKXxnOoaFR" stroke-dasharray="undefined" vector-effect="non-scaling-stroke" d="M 0 0 L 80 0 L 80 17 L 0 17 Z"/><g><rect fill="rgb(255, 255, 255)" stroke="none" x="0" y="0" width="80" height="17"/></g></g><g><path fill="none" stroke="none" data-layerId="40FKXxnOoaFR" stroke-dasharray="undefined" vector-effect="non-scaling-stroke" d="M 0 0 L 80 0 L 80 17 L 0 17 Z"/><g><rect fill="rgb(0,0,0)" stroke="none" x="0" y="0" width="80" height="17" fill-opacity="0"/></g></g><g><path fill="none" stroke="none" data-layerId="40FKXxnOoaFR" stroke-dasharray="undefined" vector-effect="non-scaling-stroke" d="M 6.98333740234375 0 L 72.98333740234375 0 L 72.98333740234375 17 L 6.98333740234375 17 Z"/><g><rect fill="rgb(0,0,0)" stroke="none" x="6.98333740234375" y="0" width="66" height="17" fill-opacity="0"/></g></g><g><path fill="none" stroke="none" data-layerId="40FKXxnOoaFR" stroke-dasharray="undefined" vector-effect="non-scaling-stroke" d="M 6.98333740234375 0 L 72.98333740234375 0 L 72.98333740234375 17 L 6.98333740234375 17 Z"/><g><rect fill="rgb(0,0,0)" stroke="none" x="6.98333740234375" y="0" width="66" height="17" fill-opacity="0"/></g><text fill="rgb(56, 118, 29)" stroke="none" font-family="&quot;Roboto Slab&quot;" font-size="12px" font-style="italic" font-weight="700" text-decoration="" line-height="17px" x="6.98333740234375" y="13" data-layerId="40FKXxnOoaFR">Subscribe</text></g><g><path fill="none" stroke="none" data-layerId="40FKXxnOoaFR" stroke-dasharray="undefined" vector-effect="non-scaling-stroke" d="M 73.11666870117188 0 L 73.11666870117188 0 L 73.11666870117188 17 L 73.11666870117188 17 Z"/><g/></g></g><g data-width="72" data-height="72" data-layerId="40FKXxnOoaFR" transform="translate(0,0) matrix(1,0,0,1,215,34)"><g><g transform="translate(0,0) scale(1.44,1.44)"><g><g><path fill="#d6242d" stroke="rgb(0,0,0)" data-layerId="40FKXxnOoaFR" stroke-dasharray="undefined" vector-effect="non-scaling-stroke" d="M 13.51 37 C 4.272396 37 -1.494912 27 3.123891 19 C 7.742693 11 19.2897 11 23.9085 19 C 24.21395 19.52905 24.47855 20.08066 24.7 20.65 L 27 20.65 L 29.58 18.07 C 29.97004 17.68228 30.59996 17.68228 30.99 18.07 L 33.57 20.65 L 34.66 20.65 L 37.24 18.07 C 37.42872 17.88281 37.6842 17.77846 37.95 17.78 L 37.95 17.78 C 38.21234 17.7811 38.46374 17.88526 38.65 18.07 L 41.23 20.65 L 43.69 20.65 C 43.93307 20.65035 44.1677 20.73922 44.35 20.9 L 48.18 24.25 C 48.59024 24.61096 48.63477 25.23439 48.28 25.65 L 45.39 29 C 45.20001 29.22212 44.92229 29.35 44.63 29.35 L 24.7 29.35 C 22.91927 33.97532 18.46623 37.01962 13.51 37 Z M 13.51 15 C 5.81204 14.97421 0.9728931 23.29137 4.799536 29.9709 C 8.626179 36.65042 18.24863 36.68267 22.11995 30.02893 C 22.48408 29.40309 22.77916 28.73956 23 28.05 C 23.13575 27.61669 23.5464 27.32923 24 27.35 L 44.17 27.35 L 46.1 25.1 L 43.29 22.65 L 40.8 22.65 C 40.5342 22.65154 40.27872 22.54719 40.09 22.36 L 37.93 20.19 L 35.76 22.36 C 35.57128 22.54719 35.3158 22.65154 35.05 22.65 L 33.14 22.65 C 32.8742 22.65154 32.61872 22.54719 32.43 22.36 L 30.27 20.19 L 28.1 22.36 C 27.91128 22.54719 27.6558 22.65154 27.39 22.65 L 24 22.65 C 23.5464 22.67077 23.13575 22.38331 23 21.95 C 21.6777 17.82109 17.84545 15.01454 13.51 15 Z M 10.16 29.35 C 6.811368 29.35 4.718474 25.725 6.392789 22.825 C 8.067105 19.925 12.25289 19.925 13.92721 22.825 C 14.309 23.48628 14.51 24.23642 14.51 25 C 14.51 27.40244 12.56244 29.35 10.16 29.35 Z M 10.16 22.65 C 8.350969 22.65 7.220325 24.60833 8.12484 26.175 C 9.029356 27.74167 11.29064 27.74167 12.19516 26.175 C 12.40142 25.81775 12.51 25.41251 12.51 25 C 12.51 23.70213 11.45787 22.65 10.16 22.65 Z" stroke-opacity="0" stroke-miterlimit="10"/></g></g></g></g></g><g transform="matrix(1,0,0,1,210,108)"><g><g><rect fill="rgb(0,0,0)" stroke="none" x="0" y="0" width="80" height="17" fill-opacity="0"/></g></g><g><g><rect fill="rgb(0,0,0)" stroke="none" x="0" y="0" width="80" height="17" fill-opacity="0"/></g></g><g><g><rect fill="rgb(0,0,0)" stroke="none" x="2.5" y="-0.5" width="75" height="18" fill-opacity="0"/></g></g><g><g><rect fill="rgb(0,0,0)" stroke="none" x="2.5" y="-0.5" width="75" height="18" fill-opacity="0"/></g><text fill="rgb(103, 78, 167)" stroke="none" font-family="&quot;Droid Serif&quot;" font-size="14px" font-style="normal" font-weight="700" text-decoration="" line-height="17px" x="2.5" y="13.5" data-layerId="40FKXxnOoaFR">IAM</text><text fill="rgb(103, 78, 167)" stroke="none" font-family="&quot;Droid Serif&quot;" font-size="14px" font-style="normal" font-weight="700" text-decoration="" line-height="17px" x="35.399993896484375" y="13.5" data-layerId="40FKXxnOoaFR">Policy</text></g><g><g/></g></g><g data-layerId="40FKXxnOoaFR" transform="matrix(1,0,0,1,271,54)"><g transform="translate(0,0)"><path fill="none" stroke="none" stroke-dasharray="undefined" vector-effect="non-scaling-stroke"/><g transform="translate(-356,-144) translate(85,90) matrix(1,0,0,1,0,0)"><g><g><path fill="none" stroke="#b7b7b7" stroke-dasharray="undefined" vector-effect="non-scaling-stroke" d="M 287 70 L 350 70 Q 360 70 360 80 L 360 214" stroke-miterlimit="10" stroke-width="4"/></g></g></g></g></g><g transform="matrix(1,0,0,1,278,136)"><g><path fill="none" stroke="none" data-layerId="40FKXxnOoaFR" stroke-dasharray="undefined" vector-effect="non-scaling-stroke" d="M 0 0 L 163 0 L 163 34 L 0 34 Z"/><g><rect fill="rgb(255, 255, 255)" stroke="none" x="0" y="0" width="163" height="34"/></g></g><g><path fill="none" stroke="none" data-layerId="40FKXxnOoaFR" stroke-dasharray="undefined" vector-effect="non-scaling-stroke" d="M 0 0 L 163 0 L 163 17 L 0 17 Z"/><g><rect fill="rgb(0,0,0)" stroke="none" x="0" y="0" width="163" height="17" fill-opacity="0"/></g></g><g><path fill="none" stroke="none" data-layerId="40FKXxnOoaFR" stroke-dasharray="undefined" vector-effect="non-scaling-stroke" d="M 2.5 0 L 160.5 0 L 160.5 17 L 2.5 17 Z"/><g><rect fill="rgb(0,0,0)" stroke="none" x="2.5" y="0" width="158" height="17" fill-opacity="0"/></g></g><g><path fill="none" stroke="none" data-layerId="40FKXxnOoaFR" stroke-dasharray="undefined" vector-effect="non-scaling-stroke" d="M 2.5 0 L 160.5 0 L 160.5 17 L 2.5 17 Z"/><g><rect fill="rgb(0,0,0)" stroke="none" x="2.5" y="0" width="158" height="17" fill-opacity="0"/></g><text fill="rgb(39, 78, 19)" stroke="none" font-family="&quot;Droid Sans Mono&quot;" font-size="12px" font-style="italic" font-weight="normal" text-decoration="" line-height="17px" x="2.5" y="13" data-layerId="40FKXxnOoaFR">lambda</text><text fill="rgb(39, 78, 19)" stroke="none" font-family="&quot;Droid Sans Mono&quot;" font-size="12px" font-style="italic" font-weight="normal" text-decoration="" line-height="17px" x="45.69999694824219" y="13" data-layerId="40FKXxnOoaFR">:</text><text fill="rgb(39, 78, 19)" stroke="none" font-family="&quot;Droid Sans Mono&quot;" font-size="12px" font-style="italic" font-weight="normal" text-decoration="" line-height="17px" x="52.899993896484375" y="13" data-layerId="40FKXxnOoaFR">InvokeFunction</text><text fill="rgb(39, 78, 19)" stroke="none" font-family="&quot;Droid Sans Mono&quot;" font-size="12px" font-style="italic" font-weight="normal" text-decoration="" line-height="17px" x="153.6999969482422" y="13" data-layerId="40FKXxnOoaFR">,</text></g><g><path fill="none" stroke="none" data-layerId="40FKXxnOoaFR" stroke-dasharray="undefined" vector-effect="non-scaling-stroke" d="M 0 17 L 163 17 L 163 34 L 0 34 Z"/><g><rect fill="rgb(0,0,0)" stroke="none" x="0" y="17" width="163" height="17" fill-opacity="0"/></g></g><g><path fill="none" stroke="none" data-layerId="40FKXxnOoaFR" stroke-dasharray="undefined" vector-effect="non-scaling-stroke" d="M 16.899993896484375 17 L 146.89999389648438 17 L 146.89999389648438 34 L 16.899993896484375 34 Z"/><g><rect fill="rgb(0,0,0)" stroke="none" x="16.899993896484375" y="17" width="130" height="17" fill-opacity="0"/></g></g><g><path fill="none" stroke="none" data-layerId="40FKXxnOoaFR" stroke-dasharray="undefined" vector-effect="non-scaling-stroke" d="M 16.899993896484375 17 L 146.89999389648438 17 L 146.89999389648438 34 L 16.899993896484375 34 Z"/><g><rect fill="rgb(0,0,0)" stroke="none" x="16.899993896484375" y="17" width="130" height="17" fill-opacity="0"/></g><text fill="rgb(39, 78, 19)" stroke="none" font-family="&quot;Droid Sans Mono&quot;" font-size="12px" font-style="italic" font-weight="normal" text-decoration="" line-height="17px" x="16.899993896484375" y="30" data-layerId="40FKXxnOoaFR">lambda</text><text fill="rgb(39, 78, 19)" stroke="none" font-family="&quot;Droid Sans Mono&quot;" font-size="12px" font-style="italic" font-weight="normal" text-decoration="" line-height="17px" x="60.100006103515625" y="30" data-layerId="40FKXxnOoaFR">:</text><text fill="rgb(39, 78, 19)" stroke="none" font-family="&quot;Droid Sans Mono&quot;" font-size="12px" font-style="italic" font-weight="normal" text-decoration="" line-height="17px" x="67.30000305175781" y="30" data-layerId="40FKXxnOoaFR">InvokeAsync</text></g></g></g></svg>